<svg width="419" height="71" viewBox="0 0 425 50" fill="none" xmlns="http://www.w3.org/2000/svg">
<path d="M0.8125 18.8125C0.9375 18.1875 1.02083 17.6875 1.0625 17.3125C1.10417 16.8958 0.958333 16.4583 0.625 16C0.791667 15.3333 0.916667 14.8125 1 14.4375C1.125 14.0625 1.14583 13.5417 1.0625 12.875C1.4375 11.7917 2 10.875 2.75 10.125C3.54167 9.375 4.39583 8.75 5.3125 8.25C6.22917 7.70833 7.1875 7.27083 8.1875 6.9375C9.1875 6.5625 10.125 6.25 11 6C11 5.83333 10.9167 5.75 10.75 5.75C10.5833 5.75 10.5417 5.64583 10.625 5.4375C12.875 5.02083 15.125 4.41667 17.375 3.625C19.6667 2.83333 22 2.125 24.375 1.5C26.75 0.875 29.1875 0.5 31.6875 0.375C34.1875 0.208333 36.8125 0.520833 39.5625 1.3125C39.7292 1.8125 39.9583 2.29167 40.25 2.75C40.5417 3.20833 40.8333 3.66667 41.125 4.125C41.4583 4.54167 41.75 4.95833 42 5.375C42.25 5.79167 42.3958 6.22917 42.4375 6.6875C42.9375 7.14583 43.3333 7.64583 43.625 8.1875C43.9583 8.6875 44.0208 9.375 43.8125 10.25C43.3542 10.5833 42.875 10.9167 42.375 11.25C41.875 11.5833 41.3542 11.8958 40.8125 12.1875C38.9375 11.7292 37.0625 11.5625 35.1875 11.6875C33.3125 11.8125 31.625 11.9583 30.125 12.125C29.6667 11.625 29.125 11.3958 28.5 11.4375C27.875 11.4375 27.2083 11.5417 26.5 11.75C25.8333 11.9167 25.1667 12.1042 24.5 12.3125C23.8333 12.4792 23.2083 12.5208 22.625 12.4375C22.1667 12.8542 21.5625 13.1458 20.8125 13.3125C20.0625 13.4375 19.2708 13.5417 18.4375 13.625C18.3958 13.8333 18.4375 13.9792 18.5625 14.0625C18.6875 14.1458 18.7083 14.3125 18.625 14.5625C18.9167 14.9375 19.3125 15.2083 19.8125 15.375C20.3125 15.5 20.8125 15.625 21.3125 15.75C21.8542 15.875 22.3333 16.0625 22.75 16.3125C23.1667 16.5208 23.4375 16.875 23.5625 17.375C24.3125 17.4167 24.9583 17.625 25.5 18C26.0417 18.3333 26.5 18.75 26.875 19.25C27.25 19.75 27.5208 20.2917 27.6875 20.875C27.8542 21.4167 27.9167 21.9167 27.875 22.375C28.0417 22.7917 28.2083 22.9583 28.375 22.875C28.5833 22.7917 28.8125 22.8958 29.0625 23.1875C29.2292 23.8125 29.6042 24.4792 30.1875 25.1875C30.8125 25.8542 31.2917 26.5833 31.625 27.375C31.7083 28.625 31.7708 29.75 31.8125 30.75C31.8958 31.75 31.7292 32.7292 31.3125 33.6875C30.6042 35.5208 29.5833 37.1667 28.25 38.625C26.9167 40.0833 25.3958 41.375 23.6875 42.5C22.0208 43.5833 20.25 44.5417 18.375 45.375C16.5 46.1667 14.6458 46.8333 12.8125 47.375C12.6458 47.3333 12.4375 47.3333 12.1875 47.375C11.9792 47.4167 11.9375 47.2917 12.0625 47C11.6875 47.3333 11.25 47.5417 10.75 47.625C10.2917 47.7083 9.77083 47.7292 9.1875 47.6875C8.64583 47.6875 8.08333 47.6667 7.5 47.625C6.95833 47.5833 6.41667 47.6042 5.875 47.6875C5.54167 47.3542 5.22917 47.0208 4.9375 46.6875C4.6875 46.3542 4.47917 45.9583 4.3125 45.5C4.10417 45.4583 4 45.3333 4 45.125C4.04167 44.875 3.95833 44.75 3.75 44.75C3.75 44.5833 3.77083 44.4583 3.8125 44.375C3.85417 44.2917 3.89583 44.2083 3.9375 44.125C4.10417 44 4.16667 43.9167 4.125 43.875C4.125 43.7917 4.0625 43.7292 3.9375 43.6875C3.85417 43.6042 3.75 43.5208 3.625 43.4375C3.54167 43.3542 3.52083 43.25 3.5625 43.125C3.77083 42.75 3.83333 42.3125 3.75 41.8125C3.70833 41.2708 3.66667 40.7292 3.625 40.1875C3.58333 39.6458 3.625 39.1458 3.75 38.6875C3.875 38.1875 4.22917 37.7708 4.8125 37.4375C6.52083 37.6042 8.125 37.5208 9.625 37.1875C11.1667 36.8542 12.6042 36.3958 13.9375 35.8125C15.3125 35.2292 16.6042 34.6042 17.8125 33.9375C19.0625 33.2292 20.2708 32.5833 21.4375 32C21.5625 31.5833 21.75 31.2292 22 30.9375C22.2917 30.6458 22.5833 30.375 22.875 30.125C23.1667 29.8333 23.4375 29.5417 23.6875 29.25C23.9375 28.9167 24.125 28.5208 24.25 28.0625C24.2917 27.8958 24.2917 27.7708 24.25 27.6875C24.2083 27.6042 24.1458 27.5417 24.0625 27.5C23.9792 27.4167 23.8958 27.3333 23.8125 27.25C23.7292 27.1667 23.6875 27.0417 23.6875 26.875C23.5625 26.8333 23.4375 26.7917 23.3125 26.75C23.2292 26.7083 23.1458 26.6875 23.0625 26.6875C21.9792 26.1458 20.8333 25.6875 19.625 25.3125C18.4167 24.9375 17.3958 24.5208 16.5625 24.0625C16.0625 24.3958 15.5625 24.4792 15.0625 24.3125C14.5625 24.1458 13.9583 23.9792 13.25 23.8125C11.5 23.7292 9.83333 23.5625 8.25 23.3125C6.70833 23.0625 5.20833 22.625 3.75 22C3.66667 21.75 3.5625 21.5417 3.4375 21.375C3.3125 21.1667 3.02083 21.1042 2.5625 21.1875C2.27083 20.7708 1.95833 20.3958 1.625 20.0625C1.33333 19.6875 1.0625 19.2708 0.8125 18.8125ZM70.9375 41.75C70.6875 42.4583 70.3125 43.1875 69.8125 43.9375C69.3542 44.6458 68.7917 45.2917 68.125 45.875C67.5 46.4167 66.7917 46.875 66 47.25C65.2083 47.625 64.375 47.8333 63.5 47.875C62.9583 47.75 62.5833 47.6042 62.375 47.4375C62.2083 47.3125 62.0208 47.1875 61.8125 47.0625C61.6875 46.9792 61.5625 46.9167 61.4375 46.875C61.3542 46.7917 61.2708 46.7292 61.1875 46.6875L60.4375 46.375L60.6875 45.5625C60.7708 45.2292 60.75 44.9792 60.625 44.8125C60.5 44.6042 60.25 44.3333 59.875 44C59.75 43.875 59.625 43.75 59.5 43.625C59.375 43.5 59.2708 43.375 59.1875 43.25L58.125 42.0625L59.8125 41.625C60.8542 41.3333 61.5417 40.9583 61.875 40.5C62.25 40.0417 62.3958 39.2708 62.3125 38.1875C61.4792 38.0208 60.7708 38 60.1875 38.125C59.6458 38.25 59.0833 38.3958 58.5 38.5625C57.75 38.7708 56.9792 38.9583 56.1875 39.125C55.4375 39.25 54.6042 39.3125 53.6875 39.3125C53.3542 39.3125 53.0417 39.3125 52.75 39.3125C52.4583 39.2708 52.1458 39.2292 51.8125 39.1875L51.1875 39.0625C51.1042 38.6042 51.0208 38.3542 50.9375 38.3125C50.8542 38.2292 50.7708 38.1458 50.6875 38.0625C50.4792 37.8542 50.25 37.5833 50 37.25C49.7917 36.875 49.75 36.4167 49.875 35.875C49.6667 35.5 49.5417 35.125 49.5 34.75C49.25 35.25 49.0625 35.7708 48.9375 36.3125L48.6875 36.9375L48.0625 37.0625C47.9792 37.1042 47.9167 37.2083 47.875 37.375C47.8333 37.5 47.8125 37.6042 47.8125 37.6875L47.5 38.75C47.4167 38.8333 47.3333 38.9167 47.25 39C47.1667 39.0417 47.0833 39.1042 47 39.1875C46.9167 39.5625 46.8125 39.9375 46.6875 40.3125C46.5625 40.6875 46.4375 41.0417 46.3125 41.375C46.1042 41.9167 45.9167 42.4583 45.75 43C45.625 43.5 45.5833 44 45.625 44.5L45.375 45.1875C45.1667 45.4375 44.9375 45.6458 44.6875 45.8125C44.4375 45.9375 44.1875 46.0625 43.9375 46.1875C43.8542 46.2708 43.7292 46.3542 43.5625 46.4375C43.4375 46.4792 43.3333 46.5208 43.25 46.5625L43.0625 47.25L42.3125 47.375C41.8542 47.4583 41.5208 47.5208 41.3125 47.5625C41.1458 47.6042 40.9375 47.625 40.6875 47.625L40.0625 47.5625C39.6042 47.1875 39.25 46.8958 39 46.6875C38.75 46.4375 38.4583 46.2083 38.125 46C37.75 45.5 37.5417 45.125 37.5 44.875C37.4583 44.625 37.4167 44.3958 37.375 44.1875C37.2917 43.9375 37.25 43.7292 37.25 43.5625C37.2083 43.3958 37.1458 43.2708 37.0625 43.1875L36.25 42.4375L36.9375 41.875L37 40.8125C37.8333 38.6875 38.7083 36.6458 39.625 34.6875C40.5833 32.7292 41.5625 30.7292 42.5625 28.6875C42.8958 28.0208 43.2083 27.3542 43.5 26.6875C43.8333 26.0208 44.1667 25.3542 44.5 24.6875C44.4583 24.5625 44.4375 24.4167 44.4375 24.25C44.4375 24.0833 44.4792 23.8958 44.5625 23.6875C45.0208 22.9792 45.3958 22.3542 45.6875 21.8125C45.9792 21.2292 46.2708 20.6458 46.5625 20.0625C46.8958 19.3542 47.2292 18.6667 47.5625 18C47.9375 17.3333 48.3958 16.6458 48.9375 15.9375L49.9375 15.5C50.0625 15.4583 50.2083 15.4167 50.375 15.375C50.5417 15.2917 50.7292 15.25 50.9375 15.25L51.875 15.375C53.0417 14.8333 54.0625 14.0833 54.9375 13.125C55.8125 12.125 56.7083 10.9375 57.625 9.5625L58.25 8.6875L59.0625 9.1875C59.2708 9.3125 59.5625 9.4375 59.9375 9.5625C60.3125 9.64583 60.7083 9.75 61.125 9.875C61.875 10.0417 62.5833 10.2292 63.25 10.4375C63.9167 10.6458 64.4583 10.9583 64.875 11.375C65.125 12.0417 65.2708 12.5417 65.3125 12.875C65.3542 13.2083 65.4167 13.5417 65.5 13.875C65.625 14.5833 65.7292 15.2917 65.8125 16C65.9375 16.7083 66.0208 17.5 66.0625 18.375C66.2708 19.0833 66.4375 19.7917 66.5625 20.5C66.7292 21.1667 66.875 21.8542 67 22.5625C67.2083 23.5625 67.4167 24.5417 67.625 25.5C67.8333 26.4167 68.1042 27.2917 68.4375 28.125C68.7708 28.125 68.9792 28.1458 69.0625 28.1875C69.2708 28.1042 69.4792 28.0417 69.6875 28C69.9375 27.9583 70.2083 27.9167 70.5 27.875L71.1875 27.8125L71.4375 28.4375C71.4792 28.6458 71.6875 28.8542 72.0625 29.0625C72.6042 29.1042 73 29.2292 73.25 29.4375C73.5 29.6042 73.7292 29.7917 73.9375 30C74.1042 30.1667 74.2708 30.2917 74.4375 30.375L75.375 30.75L74.875 31.6875C74.4583 32.4375 73.8542 33.1667 73.0625 33.875C72.3125 34.5417 71.4583 35.1042 70.5 35.5625C70.5417 35.8125 70.5625 36.0625 70.5625 36.3125C70.6042 36.5208 70.6667 36.75 70.75 37C70.875 37.7083 70.9792 38.4375 71.0625 39.1875C71.1458 39.9375 71.1458 40.7083 71.0625 41.5L70.9375 41.75ZM52.875 30.9375C54.125 30.8542 55.25 30.7708 56.25 30.6875C57.2917 30.5625 58.4375 30.375 59.6875 30.125C59.3958 28.875 59.0833 27.5833 58.75 26.25C58.4167 24.875 58.0625 23.5208 57.6875 22.1875L57.3125 22.8125C56.4792 23.6875 55.6667 24.6667 54.875 25.75C54.125 26.8333 53.4792 27.8542 52.9375 28.8125C52.6875 29.1875 52.4375 29.5625 52.1875 29.9375C51.9375 30.3125 51.7083 30.6875 51.5 31.0625C51.75 31.0208 51.9792 31 52.1875 31C52.4375 31 52.6667 30.9792 52.875 30.9375ZM88.875 35.625C88.5 35.7083 88.2292 35.9375 88.0625 36.3125C87.8958 36.6458 87.7292 37 87.5625 37.375C87.4375 37.75 87.2917 38.1042 87.125 38.4375C87 38.7292 86.7917 38.875 86.5 38.875C86.4583 39.2083 86.3333 39.5 86.125 39.75C85.9583 40 85.7917 40.2708 85.625 40.5625C85.4583 40.8125 85.3333 41.1042 85.25 41.4375C85.1667 41.7292 85.2083 42.0833 85.375 42.5C85.0417 42.75 84.8333 43.1042 84.75 43.5625C84.6667 44.0208 84.5625 44.4583 84.4375 44.875C84.3542 45.2917 84.1875 45.6458 83.9375 45.9375C83.6875 46.2292 83.2292 46.3542 82.5625 46.3125C82.4375 46.4792 82.4167 46.5833 82.5 46.625C82.5833 46.6667 82.6458 46.8125 82.6875 47.0625C82.2292 46.9792 81.875 47 81.625 47.125C81.4167 47.2917 81.1458 47.3958 80.8125 47.4375C80.0208 47.1875 79.3542 46.75 78.8125 46.125C78.3125 45.5 77.8542 44.8125 77.4375 44.0625C77.0625 43.2708 76.7083 42.4792 76.375 41.6875C76.0833 40.8958 75.7917 40.2083 75.5 39.625C75.625 39.1667 75.6458 38.7292 75.5625 38.3125C75.4792 37.8542 75.3333 37.4792 75.125 37.1875C77.1667 32.8542 79.3958 28.2292 81.8125 23.3125C84.2292 18.3958 86.5208 13.5417 88.6875 8.75C89.6458 9.125 90.5833 9.5625 91.5 10.0625C92.4583 10.5208 93.3125 11.0625 94.0625 11.6875C94.8542 12.3125 95.5208 13.0417 96.0625 13.875C96.6042 14.6667 96.9583 15.5625 97.125 16.5625C97.0417 16.8125 96.9375 16.9167 96.8125 16.875C96.7292 16.7917 96.6458 16.8125 96.5625 16.9375C96.7292 17.1458 96.8125 17.2917 96.8125 17.375C96.8542 17.4583 96.8542 17.5417 96.8125 17.625C96.8125 17.7083 96.8125 17.8333 96.8125 18C96.8125 18.125 96.875 18.3125 97 18.5625C96.8333 18.5208 96.7083 18.5417 96.625 18.625C96.5833 18.7083 96.4583 18.7083 96.25 18.625C96.4167 19.0833 96.4583 19.4583 96.375 19.75C96.3333 20.0417 96.25 20.3125 96.125 20.5625C96 20.7708 95.8958 21.0208 95.8125 21.3125C95.7292 21.5625 95.75 21.8958 95.875 22.3125C95.75 22.3125 95.6458 22.3542 95.5625 22.4375C95.5208 22.4792 95.4792 22.5417 95.4375 22.625C95.3958 22.6667 95.3333 22.7292 95.25 22.8125C95.2083 22.8542 95.125 22.8542 95 22.8125C95.125 23.7292 95.1667 24.6458 95.125 25.5625C95.0833 26.4792 95.0417 27.4167 95 28.375C95 29.2917 95.0208 30.2708 95.0625 31.3125C95.1042 32.3125 95.25 33.3542 95.5 34.4375C97 33.5625 98.1875 32.4375 99.0625 31.0625C99.9792 29.6875 100.708 28.1458 101.25 26.4375C101.833 24.7292 102.271 22.8958 102.562 20.9375C102.854 18.9792 103.167 16.9792 103.5 14.9375C103.875 14.5625 104.167 14.1042 104.375 13.5625C104.583 13.0208 104.771 12.4583 104.938 11.875C105.104 11.25 105.271 10.6458 105.438 10.0625C105.604 9.4375 105.812 8.875 106.062 8.375C106.688 8.45833 107.208 8.66667 107.625 9C108.083 9.29167 108.5 9.625 108.875 10C109.25 10.3333 109.646 10.6667 110.062 11C110.479 11.2917 111 11.4792 111.625 11.5625C112.125 12.2708 112.583 12.9583 113 13.625C113.417 14.2917 113.688 15 113.812 15.75C113.604 16.0833 113.438 16.4583 113.312 16.875C113.229 17.2917 113.125 17.7083 113 18.125C112.875 18.5417 112.708 18.9375 112.5 19.3125C112.292 19.6458 112 19.9375 111.625 20.1875C111.5 21.2708 111.333 22.2708 111.125 23.1875C110.958 24.0625 110.771 24.9375 110.562 25.8125C110.396 26.6875 110.25 27.6042 110.125 28.5625C110 29.4792 109.958 30.5 110 31.625C109.667 32.5833 109.312 33.6042 108.938 34.6875C108.562 35.7708 108.271 36.75 108.062 37.625C107.396 38.1667 106.875 38.8125 106.5 39.5625C106.125 40.3125 105.729 41.0625 105.312 41.8125C105.146 41.9792 105.042 42.0208 105 41.9375C104.958 41.8542 104.812 41.7917 104.562 41.75C104.604 41.9167 104.604 42.0417 104.562 42.125C104.521 42.2083 104.458 42.2917 104.375 42.375C104.333 42.4167 104.292 42.5 104.25 42.625C104.25 42.75 104.292 42.9167 104.375 43.125C103.792 43.375 103.271 43.7292 102.812 44.1875C102.354 44.6458 101.854 45.0625 101.312 45.4375C100.812 45.8125 100.188 46.0625 99.4375 46.1875C98.7292 46.3125 97.7917 46.1667 96.625 45.75C94.9167 44.5 93.3958 43.0625 92.0625 41.4375C90.7708 39.8125 89.7083 37.875 88.875 35.625ZM144 30.125C143.958 30.3333 143.917 30.5208 143.875 30.6875C143.833 30.8125 143.792 30.9375 143.75 31.0625C143.708 31.1875 143.688 31.3542 143.688 31.5625C143.688 31.7292 143.688 31.9583 143.688 32.25C142.438 34.4583 140.854 36.3125 138.938 37.8125C137.062 39.3125 134.979 40.6458 132.688 41.8125C130.438 42.9375 128.083 43.9792 125.625 44.9375C123.167 45.8542 120.771 46.8542 118.438 47.9375C117.438 47.6875 116.667 47.2708 116.125 46.6875C115.625 46.1042 115.229 45.4375 114.938 44.6875C114.688 43.8958 114.5 43.0417 114.375 42.125C114.292 41.1667 114.208 40.1875 114.125 39.1875C114.25 38.7292 114.417 38.3542 114.625 38.0625C114.875 37.7292 115 37.2708 115 36.6875C115.333 35.6042 115.667 34.5417 116 33.5C116.333 32.4583 116.542 31.3958 116.625 30.3125C116.75 29.9792 116.979 29.75 117.312 29.625C117.521 27.625 117.521 25.6042 117.312 23.5625C117.146 21.4792 116.812 19.5417 116.312 17.75C116.354 17.3333 116.396 17.0417 116.438 16.875C116.521 16.6667 116.521 16.5208 116.438 16.4375C116.396 16.1042 116.5 15.9375 116.75 15.9375C117.042 15.9375 117.333 15.9375 117.625 15.9375C117.625 15.3125 117.5 14.6875 117.25 14.0625C117.042 13.4375 116.833 12.7292 116.625 11.9375C116.917 11.3125 117.104 10.7083 117.188 10.125C117.271 9.5 117.458 8.95833 117.75 8.5C120 9.20833 122.146 10.0625 124.188 11.0625C126.271 12.0625 128.312 12.7917 130.312 13.25C131.812 14.3333 133.354 15.4167 134.938 16.5C136.521 17.5417 137.958 18.7083 139.25 20C140.542 21.25 141.625 22.6875 142.5 24.3125C143.375 25.9375 143.875 27.875 144 30.125ZM129.188 33.5625C130.062 33.2292 130.917 32.875 131.75 32.5C132.625 32.125 133.417 31.7083 134.125 31.25C134.875 30.75 135.542 30.1875 136.125 29.5625C136.708 28.9375 137.188 28.1875 137.562 27.3125C137.312 26.8125 136.979 26.375 136.562 26C136.146 25.5833 135.729 25.2083 135.312 24.875C134.896 24.5 134.479 24.125 134.062 23.75C133.688 23.375 133.375 22.9167 133.125 22.375C132.583 22.2917 132.104 22.1458 131.688 21.9375C131.271 21.6875 130.854 21.4583 130.438 21.25C130.062 21 129.646 20.7708 129.188 20.5625C128.771 20.3542 128.271 20.2292 127.688 20.1875C126.771 19.7292 125.938 19.3958 125.188 19.1875C124.479 18.9792 123.938 18.7083 123.562 18.375C123.271 18.375 123.042 18.4375 122.875 18.5625C123.292 20.1458 123.604 21.6458 123.812 23.0625C124.021 24.4375 124.125 25.8333 124.125 27.25C124.167 28.625 124.104 30.0417 123.938 31.5C123.771 32.9583 123.542 34.5417 123.25 36.25C123.667 36.2083 124.042 36.125 124.375 36C124.75 35.8333 125.104 35.6667 125.438 35.5C125.812 35.3333 126.188 35.1875 126.562 35.0625C126.979 34.8958 127.458 34.7917 128 34.75C128.125 34.5 128.292 34.2917 128.5 34.125C128.75 33.9583 128.979 33.7708 129.188 33.5625ZM156.062 40.5C155.604 42.1667 155.188 43.4375 154.812 44.3125C154.479 45.1458 153.958 46.0208 153.25 46.9375C152.708 46.8542 152.333 46.9167 152.125 47.125C151.917 47.3333 151.688 47.5208 151.438 47.6875C151.062 47.7708 150.792 47.7708 150.625 47.6875C150.458 47.6042 150.312 47.5 150.188 47.375C150.062 47.2917 149.896 47.1875 149.688 47.0625C149.521 46.9792 149.25 46.9375 148.875 46.9375C148.792 46.6042 148.688 46.2917 148.562 46C148.479 45.7083 148.208 45.6042 147.75 45.6875C147.833 45.3542 147.854 45.0833 147.812 44.875C147.771 44.625 147.708 44.4167 147.625 44.25C147.583 44.0417 147.542 43.8542 147.5 43.6875C147.458 43.4792 147.479 43.2292 147.562 42.9375C147.354 42.9375 147.188 42.7917 147.062 42.5C146.938 42.2083 146.792 41.9167 146.625 41.625C146.75 40.875 146.875 40.1667 147 39.5C147.125 38.8333 147.271 38.2083 147.438 37.625C147.646 37.0417 147.812 36.4583 147.938 35.875C148.062 35.2917 148 34.6875 147.75 34.0625C147.917 34.1875 148.042 34.1667 148.125 34C148.208 33.7917 148.271 33.5417 148.312 33.25C148.354 32.9167 148.375 32.6042 148.375 32.3125C148.375 31.9792 148.354 31.7083 148.312 31.5C148.729 30.4167 149.062 29.3125 149.312 28.1875C149.604 27.0208 149.854 25.875 150.062 24.75C150.312 23.625 150.562 22.5208 150.812 21.4375C151.062 20.3542 151.396 19.3542 151.812 18.4375C152.271 18.3542 152.771 18.4167 153.312 18.625C153.896 18.7917 154.25 19.0208 154.375 19.3125C155.458 18.4792 156.417 17.4792 157.25 16.3125C158.083 15.1042 158.938 13.9375 159.812 12.8125C160.688 11.6875 161.646 10.6875 162.688 9.8125C163.771 8.9375 165.125 8.41667 166.75 8.25C167.583 8.875 168.5 9.52083 169.5 10.1875C170.542 10.8125 171.396 11.6458 172.062 12.6875C172.396 12.8542 172.667 13.0417 172.875 13.25C173.125 13.4167 173.417 13.6042 173.75 13.8125V14.5625C174.25 15.0208 174.646 15.5625 174.938 16.1875C175.271 16.7708 175.562 17.4167 175.812 18.125C176.062 18.7917 176.312 19.4792 176.562 20.1875C176.812 20.8542 177.104 21.5 177.438 22.125C177.354 22.3333 177.312 22.5208 177.312 22.6875C177.312 22.8125 177.333 22.9583 177.375 23.125C177.458 23.2917 177.521 23.4583 177.562 23.625C177.604 23.7917 177.604 24.0208 177.562 24.3125C177.438 26.1458 176.833 27.625 175.75 28.75C174.708 29.875 173.438 30.8125 171.938 31.5625C170.438 32.2708 168.833 32.875 167.125 33.375C165.417 33.875 163.875 34.4167 162.5 35C162.5 35.1667 162.562 35.25 162.688 35.25C162.854 35.25 162.917 35.3542 162.875 35.5625C163.875 36.1875 164.667 36.6875 165.25 37.0625C165.833 37.4375 166.375 37.75 166.875 38C167.417 38.25 167.979 38.4792 168.562 38.6875C169.188 38.8542 170.042 39.0625 171.125 39.3125C172.208 39.5625 173.042 39.7708 173.625 39.9375C174.25 40.0625 174.812 40.1875 175.312 40.3125C175.812 40.3958 176.312 40.4792 176.812 40.5625C177.354 40.6042 178.104 40.6667 179.062 40.75C179.438 41.125 179.75 41.5833 180 42.125C180.292 42.625 180.479 43.1458 180.562 43.6875C180.646 44.1875 180.667 44.6875 180.625 45.1875C180.583 45.6458 180.438 46.0208 180.188 46.3125C180.229 46.4375 180.312 46.5 180.438 46.5C180.604 46.4583 180.771 46.4583 180.938 46.5C180.688 46.6667 180.479 46.875 180.312 47.125C180.146 47.375 179.979 47.625 179.812 47.875C179.646 48.125 179.458 48.3333 179.25 48.5C179.042 48.7083 178.75 48.8333 178.375 48.875C177.083 49.375 175.458 49.3958 173.5 48.9375C171.542 48.5208 169.062 47.7292 166.062 46.5625C164.562 45.9792 163.333 45.4792 162.375 45.0625C161.458 44.6042 160.646 44.1667 159.938 43.75C159.271 43.2917 158.646 42.8125 158.062 42.3125C157.521 41.8125 156.854 41.2083 156.062 40.5ZM165 19.0625C164.542 19.7292 164.021 20.3333 163.438 20.875C162.896 21.4167 162.354 21.9792 161.812 22.5625C161.312 23.1042 160.854 23.7292 160.438 24.4375C160.021 25.1042 159.729 25.8958 159.562 26.8125C161.021 26.6458 162.542 26.25 164.125 25.625C165.708 24.9583 167.208 24.3333 168.625 23.75C168.458 22.4583 168 21.4167 167.25 20.625C166.542 19.8333 165.792 19.3125 165 19.0625ZM214.688 41.75C214.438 42.4583 214.062 43.1875 213.562 43.9375C213.104 44.6458 212.542 45.2917 211.875 45.875C211.25 46.4167 210.542 46.875 209.75 47.25C208.958 47.625 208.125 47.8333 207.25 47.875C206.708 47.75 206.333 47.6042 206.125 47.4375C205.958 47.3125 205.771 47.1875 205.562 47.0625C205.438 46.9792 205.312 46.9167 205.188 46.875C205.104 46.7917 205.021 46.7292 204.938 46.6875L204.188 46.375L204.438 45.5625C204.521 45.2292 204.5 44.9792 204.375 44.8125C204.25 44.6042 204 44.3333 203.625 44C203.5 43.875 203.375 43.75 203.25 43.625C203.125 43.5 203.021 43.375 202.938 43.25L201.875 42.0625L203.562 41.625C204.604 41.3333 205.292 40.9583 205.625 40.5C206 40.0417 206.146 39.2708 206.062 38.1875C205.229 38.0208 204.521 38 203.938 38.125C203.396 38.25 202.833 38.3958 202.25 38.5625C201.5 38.7708 200.729 38.9583 199.938 39.125C199.188 39.25 198.354 39.3125 197.438 39.3125C197.104 39.3125 196.792 39.3125 196.5 39.3125C196.208 39.2708 195.896 39.2292 195.562 39.1875L194.938 39.0625C194.854 38.6042 194.771 38.3542 194.688 38.3125C194.604 38.2292 194.521 38.1458 194.438 38.0625C194.229 37.8542 194 37.5833 193.75 37.25C193.542 36.875 193.5 36.4167 193.625 35.875C193.417 35.5 193.292 35.125 193.25 34.75C193 35.25 192.812 35.7708 192.688 36.3125L192.438 36.9375L191.812 37.0625C191.729 37.1042 191.667 37.2083 191.625 37.375C191.583 37.5 191.562 37.6042 191.562 37.6875L191.25 38.75C191.167 38.8333 191.083 38.9167 191 39C190.917 39.0417 190.833 39.1042 190.75 39.1875C190.667 39.5625 190.562 39.9375 190.438 40.3125C190.312 40.6875 190.188 41.0417 190.062 41.375C189.854 41.9167 189.667 42.4583 189.5 43C189.375 43.5 189.333 44 189.375 44.5L189.125 45.1875C188.917 45.4375 188.688 45.6458 188.438 45.8125C188.188 45.9375 187.938 46.0625 187.688 46.1875C187.604 46.2708 187.479 46.3542 187.312 46.4375C187.188 46.4792 187.083 46.5208 187 46.5625L186.812 47.25L186.062 47.375C185.604 47.4583 185.271 47.5208 185.062 47.5625C184.896 47.6042 184.688 47.625 184.438 47.625L183.812 47.5625C183.354 47.1875 183 46.8958 182.75 46.6875C182.5 46.4375 182.208 46.2083 181.875 46C181.5 45.5 181.292 45.125 181.25 44.875C181.208 44.625 181.167 44.3958 181.125 44.1875C181.042 43.9375 181 43.7292 181 43.5625C180.958 43.3958 180.896 43.2708 180.812 43.1875L180 42.4375L180.688 41.875L180.75 40.8125C181.583 38.6875 182.458 36.6458 183.375 34.6875C184.333 32.7292 185.312 30.7292 186.312 28.6875C186.646 28.0208 186.958 27.3542 187.25 26.6875C187.583 26.0208 187.917 25.3542 188.25 24.6875C188.208 24.5625 188.188 24.4167 188.188 24.25C188.188 24.0833 188.229 23.8958 188.312 23.6875C188.771 22.9792 189.146 22.3542 189.438 21.8125C189.729 21.2292 190.021 20.6458 190.312 20.0625C190.646 19.3542 190.979 18.6667 191.312 18C191.688 17.3333 192.146 16.6458 192.688 15.9375L193.688 15.5C193.812 15.4583 193.958 15.4167 194.125 15.375C194.292 15.2917 194.479 15.25 194.688 15.25L195.625 15.375C196.792 14.8333 197.812 14.0833 198.688 13.125C199.562 12.125 200.458 10.9375 201.375 9.5625L202 8.6875L202.812 9.1875C203.021 9.3125 203.312 9.4375 203.688 9.5625C204.062 9.64583 204.458 9.75 204.875 9.875C205.625 10.0417 206.333 10.2292 207 10.4375C207.667 10.6458 208.208 10.9583 208.625 11.375C208.875 12.0417 209.021 12.5417 209.062 12.875C209.104 13.2083 209.167 13.5417 209.25 13.875C209.375 14.5833 209.479 15.2917 209.562 16C209.688 16.7083 209.771 17.5 209.812 18.375C210.021 19.0833 210.188 19.7917 210.312 20.5C210.479 21.1667 210.625 21.8542 210.75 22.5625C210.958 23.5625 211.167 24.5417 211.375 25.5C211.583 26.4167 211.854 27.2917 212.188 28.125C212.521 28.125 212.729 28.1458 212.812 28.1875C213.021 28.1042 213.229 28.0417 213.438 28C213.688 27.9583 213.958 27.9167 214.25 27.875L214.938 27.8125L215.188 28.4375C215.229 28.6458 215.438 28.8542 215.812 29.0625C216.354 29.1042 216.75 29.2292 217 29.4375C217.25 29.6042 217.479 29.7917 217.688 30C217.854 30.1667 218.021 30.2917 218.188 30.375L219.125 30.75L218.625 31.6875C218.208 32.4375 217.604 33.1667 216.812 33.875C216.062 34.5417 215.208 35.1042 214.25 35.5625C214.292 35.8125 214.312 36.0625 214.312 36.3125C214.354 36.5208 214.417 36.75 214.5 37C214.625 37.7083 214.729 38.4375 214.812 39.1875C214.896 39.9375 214.896 40.7083 214.812 41.5L214.688 41.75ZM196.625 30.9375C197.875 30.8542 199 30.7708 200 30.6875C201.042 30.5625 202.188 30.375 203.438 30.125C203.146 28.875 202.833 27.5833 202.5 26.25C202.167 24.875 201.812 23.5208 201.438 22.1875L201.062 22.8125C200.229 23.6875 199.417 24.6667 198.625 25.75C197.875 26.8333 197.229 27.8542 196.688 28.8125C196.438 29.1875 196.188 29.5625 195.938 29.9375C195.688 30.3125 195.458 30.6875 195.25 31.0625C195.5 31.0208 195.729 31 195.938 31C196.188 31 196.417 30.9792 196.625 30.9375ZM248.062 44.6875C247.896 44.5208 247.75 44.3333 247.625 44.125C247.5 43.875 247.396 43.5625 247.312 43.1875C246.729 42.4792 246.271 41.6667 245.938 40.75C245.604 39.8333 245.375 38.8958 245.25 37.9375C245.125 36.9375 245.104 35.9375 245.188 34.9375C245.271 33.9375 245.417 33 245.625 32.125C245.75 31.7083 245.854 31.2708 245.938 30.8125C246.146 30.0208 246.354 29.25 246.562 28.5C246.771 27.7083 247.083 27.0625 247.5 26.5625C247.333 26.1042 247.354 25.6042 247.562 25.0625C247.771 24.5208 247.979 24.0208 248.188 23.5625C248.271 23.4375 248.333 23.3333 248.375 23.25C248.417 23.125 248.458 23.0208 248.5 22.9375C249 21.4792 249.479 20.0833 249.938 18.75C250.438 17.375 250.917 16.0625 251.375 14.8125C252.208 12.5208 253 10.2708 253.75 8.0625C254.542 5.85417 255.25 3.5 255.875 1C256.208 0.75 256.5 0.583333 256.75 0.5C256.833 0.458333 256.938 0.416667 257.062 0.375C257.188 0.333333 257.333 0.3125 257.5 0.3125C258.375 0.770833 259.396 1.20833 260.562 1.625C261.771 2 262.792 2.1875 263.625 2.1875L264.688 3.125C265.229 3.75 265.688 4.41667 266.062 5.125C266.479 5.79167 266.604 6.66667 266.438 7.75C266.188 8.125 265.979 8.35417 265.812 8.4375C265.562 9.39583 265.292 10.25 265 11C264.708 11.7083 264.417 12.3958 264.125 13.0625C263.792 13.8125 263.479 14.5625 263.188 15.3125C262.896 16.0625 262.646 16.9792 262.438 18.0625C262.188 18.3542 262.021 18.6042 261.938 18.8125C261.896 19.0208 261.833 19.2292 261.75 19.4375C261.667 19.6875 261.562 19.9583 261.438 20.25C261.312 20.5 261.125 20.7292 260.875 20.9375C260.708 22.2292 260.458 23.2917 260.125 24.125C259.792 24.9167 259.458 25.7083 259.125 26.5C258.542 27.9583 258 29.4167 257.5 30.875C257 32.2917 256.708 33.9167 256.625 35.75C257.125 35.625 257.583 35.5625 258 35.5625C258.542 35.5625 259.062 35.6458 259.562 35.8125C261.062 35.0625 262.688 34.6042 264.438 34.4375C266.229 34.2708 268 34.1667 269.75 34.125C271.208 34.125 272.562 34.0625 273.812 33.9375C274.229 34.2292 274.5 34.3958 274.625 34.4375C274.75 34.4375 274.958 34.4375 275.25 34.4375C275.375 34.4375 275.5 34.4375 275.625 34.4375C275.75 34.4375 275.917 34.4583 276.125 34.5C276.708 35.0833 277.271 35.5 277.812 35.75C278.354 35.9583 278.938 36.1667 279.562 36.375C280.104 36.5833 280.625 36.8125 281.125 37.0625C281.667 37.2708 282.188 37.5625 282.688 37.9375L283.25 41.125C283.583 41.5833 283.729 41.8958 283.688 42.0625C283.688 42.3958 283.604 42.6875 283.438 42.9375L283.562 43.75C282.771 43.9167 282.25 44.1042 282 44.3125C281.75 44.4792 281.479 44.7083 281.188 45C280.729 45.0417 280.292 45.0625 279.875 45.0625C279.042 45.0625 278.188 45.1875 277.312 45.4375C276.062 44.9792 274.688 44.75 273.188 44.75C272.604 44.75 272 44.7708 271.375 44.8125C270.792 44.8542 270.208 44.9167 269.625 45C269 45.0833 268.375 45.1667 267.75 45.25C267.125 45.2917 266.5 45.3125 265.875 45.3125C265.375 45.3958 265.021 45.4583 264.812 45.5C264.604 45.5417 264.396 45.6042 264.188 45.6875C262.771 46.1458 261.229 46.6042 259.562 47.0625C257.938 47.5208 256.292 47.75 254.625 47.75C252.167 47.75 250.188 47.125 248.688 45.875C248.521 45.5 248.396 45.25 248.312 45.125C248.229 45 248.146 44.8542 248.062 44.6875ZM304.062 30.625C303.771 30.875 303.521 31.1875 303.312 31.5625C303.104 31.8958 302.896 32.25 302.688 32.625C302.479 33.0833 302.25 33.5208 302 33.9375C301.75 34.3542 301.438 34.7292 301.062 35.0625C300.854 35.6875 300.646 36.1875 300.438 36.5625C300.229 36.8958 299.896 37.2917 299.438 37.75C299.021 39.4167 298.042 41.2292 296.5 43.1875C296.458 43.5625 296.333 43.9375 296.125 44.3125C295.958 44.6458 295.771 44.9792 295.562 45.3125C295.479 45.4375 295.396 45.5833 295.312 45.75C295.229 45.875 295.167 45.9792 295.125 46.0625L295 46.6875C294.792 47.0208 294.562 47.3125 294.312 47.5625C294.062 47.8125 293.833 48.0417 293.625 48.25C293.542 48.375 293.396 48.5417 293.188 48.75L292.25 49.125C289.208 48.7083 287.354 47.0833 286.688 44.25L286.75 43.625C286.833 43.4167 286.896 43.2083 286.938 43C287.021 42.75 287.104 42.5 287.188 42.25C287.354 41.6667 287.542 41.0833 287.75 40.5C288 39.9167 288.354 39.3958 288.812 38.9375C288.896 38.6458 289.083 38.1875 289.375 37.5625C289.667 36.8958 290.167 35.9167 290.875 34.625C291.458 33.625 291.917 32.8333 292.25 32.25C292.583 31.6667 292.854 31.2083 293.062 30.875C292.646 30.2083 292.146 29.6042 291.562 29.0625C291.021 28.0208 290.542 27.0208 290.125 26.0625C289.75 25.1042 289.458 24.25 289.25 23.5C289.208 22.9583 289.146 22.5 289.062 22.125C288.979 21.75 288.896 21.3542 288.812 20.9375C288.688 20.4792 288.583 20.0208 288.5 19.5625C288.417 19.1042 288.375 18.625 288.375 18.125C288.167 17.8333 288.042 17.5417 288 17.25L288.125 16.625C288.25 16.3333 288.271 15.9583 288.188 15.5C288.104 15 288 14.5 287.875 14C287.792 13.5833 287.688 13.125 287.562 12.625C287.479 12.125 287.458 11.625 287.5 11.125C287.542 10.625 287.667 10.1667 287.875 9.75C288.125 9.29167 288.521 8.89583 289.062 8.5625L290.125 8.5C290.5 8.70833 290.854 8.91667 291.188 9.125C291.562 9.29167 291.917 9.47917 292.25 9.6875C292.708 9.89583 293.146 10.1042 293.562 10.3125C293.979 10.5208 294.417 10.7917 294.875 11.125L295.312 12L296.125 12.6875V13.375C296.167 13.5417 296.188 13.7708 296.188 14.0625C296.188 14.6042 296.271 14.9375 296.438 15.0625L296.688 15.8125C296.688 16.3958 296.75 16.9583 296.875 17.5C297 18 297.125 18.4792 297.25 18.9375C297.375 19.3958 297.5 19.875 297.625 20.375C297.75 20.875 297.771 21.4167 297.688 22C297.938 21.875 298.146 21.7292 298.312 21.5625C298.396 21.4792 298.479 21.4167 298.562 21.375C298.646 21.3333 298.729 21.2708 298.812 21.1875L302.5 16.1875L302.375 15.5625L303.688 14.3125C304.021 13.9792 304.333 13.6667 304.625 13.375C304.958 13.0833 305.229 12.7708 305.438 12.4375L306.125 11.9375C307.458 9.85417 309.354 8.5625 311.812 8.0625L312.688 7.9375L312.938 8.75C313.104 9.20833 313.438 9.625 313.938 10C314.479 10.375 315.042 10.7292 315.625 11.0625L316.188 11.4375C316.396 11.8542 316.5 12.1667 316.5 12.375C316.5 12.5833 316.479 12.7708 316.438 12.9375L316.688 13.5625C316.354 14.5625 315.938 15.2917 315.438 15.75C314.979 16.2083 314.521 16.625 314.062 17C313.688 17.3333 313.333 17.6458 313 17.9375C312.708 18.1875 312.479 18.5208 312.312 18.9375L311.875 19.4375C311 19.9375 310.438 20.6042 310.188 21.4375L310 22.1875H309.25C309.208 22.1875 309.104 22.2708 308.938 22.4375C308.812 22.5625 308.604 22.9167 308.312 23.5C308.021 23.9167 307.812 24.1875 307.688 24.3125C307.562 24.4375 307.458 24.5417 307.375 24.625C307.333 24.7917 307.271 24.9583 307.188 25.125C307.146 25.25 307.083 25.4167 307 25.625C306.458 26.1667 306.125 26.5833 306 26.875C305.875 27.125 305.729 27.4167 305.562 27.75C305.396 28.0833 305.229 28.4167 305.062 28.75C304.938 29.0417 304.708 29.3542 304.375 29.6875L304.062 30.625ZM345.188 28.25C345.146 28.75 345.188 29.2292 345.312 29.6875C345.438 30.1458 345.583 30.6042 345.75 31.0625C345.958 31.4792 346.146 31.9167 346.312 32.375C346.479 32.8333 346.604 33.2917 346.688 33.75C346.771 34.3333 346.771 34.9792 346.688 35.6875C346.604 36.3542 346.458 37.0208 346.25 37.6875C346.042 38.3125 345.771 38.8958 345.438 39.4375C345.104 39.9375 344.708 40.3125 344.25 40.5625C343.667 41.3125 342.958 41.8958 342.125 42.3125C341.292 42.7292 340.521 43.2292 339.812 43.8125C339.354 44.1042 338.833 44.3125 338.25 44.4375C337.708 44.5625 337.146 44.6875 336.562 44.8125C336.104 45.0625 335.562 45.3333 334.938 45.625C334.312 45.875 333.667 46.125 333 46.375C332.333 46.5833 331.667 46.75 331 46.875C330.333 46.9583 329.75 46.9792 329.25 46.9375C328 47.3958 326.771 47.6875 325.562 47.8125C324.396 47.9792 323.021 47.8958 321.438 47.5625C319.938 47.7708 318.542 47.7083 317.25 47.375C316 47.0417 314.875 46.5208 313.875 45.8125C312.917 45.0625 312.062 44.1875 311.312 43.1875C310.604 42.1458 310.021 41.0625 309.562 39.9375C309.229 37.5625 309.312 35.4167 309.812 33.5C310.312 31.5417 311.021 29.75 311.938 28.125C312.896 26.4583 313.979 24.9375 315.188 23.5625C316.396 22.1458 317.562 20.7708 318.688 19.4375C318.938 19.5208 319.125 19.5208 319.25 19.4375C319.417 19.3125 319.562 19.1667 319.688 19C319.812 18.7917 319.938 18.6042 320.062 18.4375C320.229 18.2708 320.417 18.1667 320.625 18.125C320.917 17.5 321.333 17.0417 321.875 16.75C322.458 16.4167 322.917 15.9583 323.25 15.375C323.625 15.2917 323.938 15.1667 324.188 15C324.438 14.8333 324.667 14.6458 324.875 14.4375C325.125 14.2292 325.375 14.0417 325.625 13.875C325.875 13.6667 326.167 13.5208 326.5 13.4375V12.75C327.25 12.4167 327.792 12.0417 328.125 11.625C328.5 11.1667 328.938 10.625 329.438 10C329.812 9.95833 330.104 9.9375 330.312 9.9375C330.562 9.9375 330.917 9.89583 331.375 9.8125C331.708 9.22917 332 8.79167 332.25 8.5C332.542 8.20833 332.958 7.89583 333.5 7.5625C334 7.8125 334.542 7.97917 335.125 8.0625C335.75 8.14583 336.292 8.41667 336.75 8.875C336.792 9.29167 336.917 9.625 337.125 9.875C337.333 10.0833 337.562 10.2917 337.812 10.5C338.062 10.6667 338.292 10.8542 338.5 11.0625C338.75 11.2708 338.917 11.5625 339 11.9375C339.167 11.9792 339.271 11.9583 339.312 11.875C339.396 11.7917 339.521 11.7708 339.688 11.8125C339.812 12.3958 339.958 12.7917 340.125 13C340.292 13.1667 340.458 13.5208 340.625 14.0625C340.417 14.4792 340.25 14.9167 340.125 15.375C340.042 15.7917 339.792 16.1042 339.375 16.3125C339.333 16.6042 339.417 16.7708 339.625 16.8125C339.833 16.8125 339.958 16.9167 340 17.125C340.042 17.5 339.979 17.7708 339.812 17.9375C340.812 19.5625 341.708 21.2917 342.5 23.125C343.292 24.9167 344.188 26.625 345.188 28.25ZM337.375 34.1875C337.542 33.7292 337.75 33.3542 338 33.0625C338.292 32.7708 338.458 32.3333 338.5 31.75C338.292 31.4167 338.167 31.1667 338.125 31C338.083 30.7917 338.062 30.4792 338.062 30.0625C337.146 28.7708 336.354 27.3958 335.688 25.9375C335.021 24.4375 334.271 23.0417 333.438 21.75C333.354 21.9167 333.208 22.0833 333 22.25C332.792 22.4167 332.562 22.375 332.312 22.125C332.229 22.4583 332.083 22.7083 331.875 22.875C331.667 23 331.438 23.0625 331.188 23.0625C330.938 23.0208 330.667 22.9583 330.375 22.875C330.125 22.75 329.896 22.6042 329.688 22.4375C328.479 23.3958 327.271 24.3333 326.062 25.25C324.854 26.1667 323.771 27.2292 322.812 28.4375C322.646 28.5208 322.542 28.5625 322.5 28.5625C322.458 28.5208 322.333 28.5417 322.125 28.625C321.792 29.4167 321.375 30.1458 320.875 30.8125C320.417 31.4375 319.958 32.0833 319.5 32.75C319.042 33.4167 318.646 34.125 318.312 34.875C317.979 35.625 317.792 36.5 317.75 37.5C318.458 38.0833 319.292 38.4375 320.25 38.5625C321.208 38.6875 322.188 38.7083 323.188 38.625C324.229 38.5417 325.229 38.4167 326.188 38.25C327.188 38.0417 328.104 37.9375 328.938 37.9375C330.688 37.5208 332.188 36.9792 333.438 36.3125C334.688 35.6042 336 34.8958 337.375 34.1875ZM362.812 35.625C362.438 35.7083 362.167 35.9375 362 36.3125C361.833 36.6458 361.667 37 361.5 37.375C361.375 37.75 361.229 38.1042 361.062 38.4375C360.938 38.7292 360.729 38.875 360.438 38.875C360.396 39.2083 360.271 39.5 360.062 39.75C359.896 40 359.729 40.2708 359.562 40.5625C359.396 40.8125 359.271 41.1042 359.188 41.4375C359.104 41.7292 359.146 42.0833 359.312 42.5C358.979 42.75 358.771 43.1042 358.688 43.5625C358.604 44.0208 358.5 44.4583 358.375 44.875C358.292 45.2917 358.125 45.6458 357.875 45.9375C357.625 46.2292 357.167 46.3542 356.5 46.3125C356.375 46.4792 356.354 46.5833 356.438 46.625C356.521 46.6667 356.583 46.8125 356.625 47.0625C356.167 46.9792 355.812 47 355.562 47.125C355.354 47.2917 355.083 47.3958 354.75 47.4375C353.958 47.1875 353.292 46.75 352.75 46.125C352.25 45.5 351.792 44.8125 351.375 44.0625C351 43.2708 350.646 42.4792 350.312 41.6875C350.021 40.8958 349.729 40.2083 349.438 39.625C349.562 39.1667 349.583 38.7292 349.5 38.3125C349.417 37.8542 349.271 37.4792 349.062 37.1875C351.104 32.8542 353.333 28.2292 355.75 23.3125C358.167 18.3958 360.458 13.5417 362.625 8.75C363.583 9.125 364.521 9.5625 365.438 10.0625C366.396 10.5208 367.25 11.0625 368 11.6875C368.792 12.3125 369.458 13.0417 370 13.875C370.542 14.6667 370.896 15.5625 371.062 16.5625C370.979 16.8125 370.875 16.9167 370.75 16.875C370.667 16.7917 370.583 16.8125 370.5 16.9375C370.667 17.1458 370.75 17.2917 370.75 17.375C370.792 17.4583 370.792 17.5417 370.75 17.625C370.75 17.7083 370.75 17.8333 370.75 18C370.75 18.125 370.812 18.3125 370.938 18.5625C370.771 18.5208 370.646 18.5417 370.562 18.625C370.521 18.7083 370.396 18.7083 370.188 18.625C370.354 19.0833 370.396 19.4583 370.312 19.75C370.271 20.0417 370.188 20.3125 370.062 20.5625C369.938 20.7708 369.833 21.0208 369.75 21.3125C369.667 21.5625 369.688 21.8958 369.812 22.3125C369.688 22.3125 369.583 22.3542 369.5 22.4375C369.458 22.4792 369.417 22.5417 369.375 22.625C369.333 22.6667 369.271 22.7292 369.188 22.8125C369.146 22.8542 369.062 22.8542 368.938 22.8125C369.062 23.7292 369.104 24.6458 369.062 25.5625C369.021 26.4792 368.979 27.4167 368.938 28.375C368.938 29.2917 368.958 30.2708 369 31.3125C369.042 32.3125 369.188 33.3542 369.438 34.4375C370.938 33.5625 372.125 32.4375 373 31.0625C373.917 29.6875 374.646 28.1458 375.188 26.4375C375.771 24.7292 376.208 22.8958 376.5 20.9375C376.792 18.9792 377.104 16.9792 377.438 14.9375C377.812 14.5625 378.104 14.1042 378.312 13.5625C378.521 13.0208 378.708 12.4583 378.875 11.875C379.042 11.25 379.208 10.6458 379.375 10.0625C379.542 9.4375 379.75 8.875 380 8.375C380.625 8.45833 381.146 8.66667 381.562 9C382.021 9.29167 382.438 9.625 382.812 10C383.188 10.3333 383.583 10.6667 384 11C384.417 11.2917 384.938 11.4792 385.562 11.5625C386.062 12.2708 386.521 12.9583 386.938 13.625C387.354 14.2917 387.625 15 387.75 15.75C387.542 16.0833 387.375 16.4583 387.25 16.875C387.167 17.2917 387.062 17.7083 386.938 18.125C386.812 18.5417 386.646 18.9375 386.438 19.3125C386.229 19.6458 385.938 19.9375 385.562 20.1875C385.438 21.2708 385.271 22.2708 385.062 23.1875C384.896 24.0625 384.708 24.9375 384.5 25.8125C384.333 26.6875 384.188 27.6042 384.062 28.5625C383.938 29.4792 383.896 30.5 383.938 31.625C383.604 32.5833 383.25 33.6042 382.875 34.6875C382.5 35.7708 382.208 36.75 382 37.625C381.333 38.1667 380.812 38.8125 380.438 39.5625C380.062 40.3125 379.667 41.0625 379.25 41.8125C379.083 41.9792 378.979 42.0208 378.938 41.9375C378.896 41.8542 378.75 41.7917 378.5 41.75C378.542 41.9167 378.542 42.0417 378.5 42.125C378.458 42.2083 378.396 42.2917 378.312 42.375C378.271 42.4167 378.229 42.5 378.188 42.625C378.188 42.75 378.229 42.9167 378.312 43.125C377.729 43.375 377.208 43.7292 376.75 44.1875C376.292 44.6458 375.792 45.0625 375.25 45.4375C374.75 45.8125 374.125 46.0625 373.375 46.1875C372.667 46.3125 371.729 46.1667 370.562 45.75C368.854 44.5 367.333 43.0625 366 41.4375C364.708 39.8125 363.646 37.875 362.812 35.625ZM388.125 18.875C388.417 18 388.875 17.25 389.5 16.625C390.167 16 390.875 15.4792 391.625 15.0625C392.417 14.6042 393.229 14.2292 394.062 13.9375C394.896 13.6458 395.688 13.3958 396.438 13.1875C398.104 12.4792 399.875 11.8125 401.75 11.1875C403.667 10.5208 405.604 9.9375 407.562 9.4375C409.562 8.9375 411.604 8.625 413.688 8.5C415.771 8.33333 417.958 8.58333 420.25 9.25C420.375 9.66667 420.562 10.0625 420.812 10.4375C421.062 10.8125 421.312 11.1875 421.562 11.5625C421.854 11.9375 422.104 12.3125 422.312 12.6875C422.521 13.0208 422.646 13.375 422.688 13.75C423.104 14.125 423.438 14.5417 423.688 15C423.938 15.4167 423.979 15.9792 423.812 16.6875C423.396 17.0208 422.979 17.3333 422.562 17.625C422.188 17.875 421.771 18.1042 421.312 18.3125C419.771 17.9375 418.208 17.8125 416.625 17.9375C415.042 18.0625 413.625 18.1667 412.375 18.25C412 17.875 411.542 17.6875 411 17.6875C410.5 17.6875 409.958 17.7708 409.375 17.9375C408.833 18.1042 408.271 18.2708 407.688 18.4375C407.146 18.6042 406.625 18.6458 406.125 18.5625C405.708 18.8958 405.188 19.125 404.562 19.25C403.979 19.3333 403.333 19.4167 402.625 19.5C402.583 19.7083 402.625 19.8542 402.75 19.9375C402.875 19.9792 402.896 20.1042 402.812 20.3125C403.062 20.6042 403.375 20.8125 403.75 20.9375C404.167 21.0625 404.583 21.1875 405 21.3125C405.458 21.4375 405.854 21.6042 406.188 21.8125C406.521 21.9792 406.75 22.2708 406.875 22.6875C407.5 22.6875 408.042 22.8333 408.5 23.125C408.958 23.4167 409.333 23.7708 409.625 24.1875C409.917 24.6042 410.125 25.0625 410.25 25.5625C410.417 26.0208 410.5 26.4375 410.5 26.8125C410.625 27.1458 410.771 27.2917 410.938 27.25C411.104 27.2083 411.292 27.2917 411.5 27.5C411.625 28.0417 411.938 28.6042 412.438 29.1875C412.938 29.7292 413.333 30.3333 413.625 31C413.708 32.0417 413.771 32.9792 413.812 33.8125C413.854 34.6042 413.708 35.4167 413.375 36.25C412.75 37.7917 411.875 39.1667 410.75 40.375C409.667 41.5833 408.417 42.6667 407 43.625C405.625 44.5417 404.146 45.3333 402.562 46C400.979 46.6667 399.438 47.2292 397.938 47.6875C397.771 47.6458 397.604 47.6458 397.438 47.6875C397.271 47.7292 397.229 47.625 397.312 47.375C396.979 47.6667 396.604 47.8542 396.188 47.9375C395.812 48.0208 395.396 48.0417 394.938 48C394.479 48 394 47.9792 393.5 47.9375C393.042 47.8958 392.604 47.9167 392.188 48C391.896 47.7083 391.625 47.4167 391.375 47.125C391.167 46.875 391 46.5417 390.875 46.125C390.667 46.125 390.562 46.0208 390.562 45.8125C390.604 45.6042 390.542 45.5 390.375 45.5C390.625 45.0833 390.729 44.8542 390.688 44.8125C390.688 44.7292 390.625 44.6667 390.5 44.625C390.417 44.5833 390.333 44.5417 390.25 44.5C390.167 44.4167 390.146 44.3125 390.188 44.1875C390.354 43.8542 390.417 43.4792 390.375 43.0625C390.333 42.6042 390.292 42.1458 390.25 41.6875C390.208 41.2292 390.229 40.7917 390.312 40.375C390.438 39.9583 390.75 39.625 391.25 39.375C392.667 39.5417 394 39.5 395.25 39.25C396.542 38.9583 397.75 38.5625 398.875 38.0625C400 37.5625 401.062 37.0208 402.062 36.4375C403.104 35.8542 404.125 35.3333 405.125 34.875C405.25 34.5 405.417 34.1875 405.625 33.9375C405.875 33.6875 406.125 33.4583 406.375 33.25C406.625 33.0417 406.854 32.8125 407.062 32.5625C407.271 32.3125 407.417 32 407.5 31.625C407.542 31.3333 407.458 31.1667 407.25 31.125C407.083 31.0417 407 30.875 407 30.625L406.312 30.4375C405.521 29.9792 404.625 29.6042 403.625 29.3125C402.625 28.9792 401.771 28.625 401.062 28.25C400.604 28.5 400.167 28.5625 399.75 28.4375C399.375 28.3125 398.875 28.1875 398.25 28.0625C396.833 27.9792 395.458 27.8333 394.125 27.625C392.833 27.4167 391.583 27.0417 390.375 26.5C390.292 26.2917 390.188 26.1042 390.062 25.9375C389.938 25.7708 389.708 25.7292 389.375 25.8125C389.125 25.4792 388.875 25.1667 388.625 24.875C388.375 24.5417 388.146 24.1875 387.938 23.8125C388.021 23.3125 388.083 22.8958 388.125 22.5625C388.167 22.1875 388.042 21.8333 387.75 21.5C387.917 20.9583 388.042 20.5208 388.125 20.1875C388.208 19.8542 388.208 19.4167 388.125 18.875Z" fill="#8EA5A0"/>
</svg>
